<svg xmlns="http://www.w3.org/2000/svg" viewBox="0 0 625.09 1005.372">
  <g transform="translate(-1419.07,-674.528)" fill="#000080">
    <path d="m 1650.11,927.957 c -46.27,19.701 -83.21,52.909 -110.82,99.623 -27.61,46.72 -41.42,99.18 -41.42,157.39 0,69.55 30.6,104.32 91.79,104.32 24.18,0 45.82,-8.06 64.92,-24.17 19.11,-16.12 34.11,-38.74 45,-67.84 10.9,-29.1 16.35,-59.92 16.35,-92.46 0,-35.22 -4.93,-66.64 -14.78,-94.25 -9.85,-27.614 -26.86,-55.151 -51.04,-82.613 z m 46.12,-253.429 c 25.96,0 51.86,4.552 77.68,13.656 25.82,9.105 54.7,25.149 86.64,48.134 l -15.22,71.64 h -41.2 c -10.44,-32.835 -25.15,-57.387 -44.1,-73.655 -18.95,-16.268 -41.72,-24.403 -68.28,-24.403 -20,0 -35.9,5.15 -47.69,15.448 -11.79,10.298 -17.68,23.656 -17.68,40.074 0,8.657 1.94,17.313 5.82,25.97 3.88,8.656 11.19,20.223 21.94,34.701 10.74,14.477 27.31,34.85 49.7,61.118 27.16,32.537 46.86,59.253 59.1,80.148 12.24,20.895 21.12,42.011 26.64,63.361 5.52,21.34 8.29,45.29 8.29,71.86 0,37.01 -8.74,73.13 -26.2,108.36 -17.46,35.22 -42.46,62.98 -75,83.28 -32.53,20.3 -70.15,30.45 -112.83,30.45 -37.91,0 -69.25,-6.27 -94.03,-18.81 -24.78,-12.54 -42.76,-29.55 -53.95,-51.04 -11.2,-21.5 -16.79,-46.27 -16.79,-74.33 0,-63.28 17.68,-118.73 53.05,-166.34 35.38,-47.612 87.69,-85.895 156.94,-114.85 -23.58,-26.566 -40.82,-49.551 -51.71,-68.954 -10.9,-19.402 -16.35,-37.76 -16.35,-55.073 0,-18.806 5.23,-35.821 15.67,-51.044 10.45,-15.224 25.97,-27.313 46.57,-36.268 20.6,-8.956 44.93,-13.433 72.99,-13.433 z" />
    <path d="m 1640.29,1068.72 h 403.87 l -30.89,137.46 h -42.99 c -1.19,-22.99 -3.06,-41.12 -5.59,-54.4 -2.54,-13.29 -6.12,-22.84 -10.75,-28.66 -4.63,-5.82 -10.22,-9.78 -16.79,-11.87 -6.57,-2.09 -16.42,-3.13 -29.55,-3.13 h -137.91 l -53.28,243.58 h 83.73 c 13.13,0 24.03,-1.79 32.68,-5.38 8.66,-3.58 16.72,-10.07 24.18,-19.47 7.46,-9.41 16.72,-25.45 27.76,-48.14 h 40.75 l -43.43,188.96 h -39.41 c 0,-30.15 -0.97,-49.03 -2.91,-56.65 -1.94,-7.61 -5.67,-12.83 -11.19,-15.67 -5.52,-2.83 -16.49,-4.25 -32.91,-4.25 h -87.76 l -35.37,158.5 c -6.27,28.06 -9.41,51.35 -9.41,69.85 0,9.26 1.5,16.5 4.48,21.72 2.99,5.22 7.46,9.03 13.43,11.42 5.97,2.39 16.27,4.18 30.9,5.37 l -4.93,21.94 h -184.02 l 4.92,-21.94 c 11.35,-1.79 19.85,-4.7 25.52,-8.73 5.68,-4.03 10.45,-9.63 14.33,-16.79 3.88,-7.16 7.46,-15.9 10.75,-26.19 3.28,-10.3 8.21,-30.23 14.77,-59.78 l 76.12,-344.77 c 6.57,-29.85 9.85,-53.43 9.85,-70.75 0,-14.62 -3.43,-24.77 -10.3,-30.44 -6.86,-5.67 -18.05,-8.96 -33.58,-9.85 z" />
  </g>
</svg>
